# xmcd
#
# Track frame offsets: 
#        150
#        159245
#        203319
#        218010
#        239187
#        254391
#
# Disc length: 3952 seconds
#
# Revision: 0
# Processed by: cddbd v1.5.2PL0 Copyright (c) Steve Scherf et al.
# Submitted via: ExactAudioCopy v0.95b3
#
DISCID=4a0f6e06
DTITLE=Jimi Hendrix  - Studio Sessions Vol.1 (Voodoo Chile Records  Bo
DTITLE=x-Set) - Disc 6
DYEAR=1900
DGENRE=
TTITLE0=Session Thing
TTITLE1=Gloria (Take 8)
TTITLE2=Messenger - Take 15 (Js31)
TTITLE3=Heavy Jam (Js1)
TTITLE4=Last Thursday Morning Jam (Js4)
TTITLE5=Winter Blues (Js3)
EXTD=
EXTT0=
EXTT1=
EXTT2=
EXTT3=
EXTT4=
EXTT5=
PLAYORDER=
